<svg width="400" height="271" viewBox="0 0 400 271" fill="none" xmlns="http://www.w3.org/2000/svg">
<g clip-path="url(#clip0_143_256)">
<path opacity="0.4" d="M271.047 168.352C287.548 168.352 300.926 154.975 300.926 138.473C300.926 121.971 287.548 108.594 271.047 108.594C254.545 108.594 241.167 121.971 241.167 138.473C241.167 154.975 254.545 168.352 271.047 168.352Z" fill="#5CDDAF"/>
<path d="M271.729 179.817H105.11V224.975H271.729V179.817Z" fill="#3F3D56"/>
<path d="M261.057 67.9344L254.404 71.0832L260.292 66.6803C259.335 65.1865 258.26 63.7718 257.077 62.4497L228.224 69.6214L254.286 59.6793C253.095 58.6285 251.831 57.6645 250.502 56.7946L206.536 63.8763C201.868 69.7137 199.323 76.9647 199.32 84.439H265.5C265.497 78.6423 263.965 72.949 261.057 67.9344Z" fill="#F2F2F2"/>
<path d="M266.326 19.5409C239.88 6.64213 210.836 -0.0416671 181.412 -4.78439e-06C121.527 -4.78439e-06 67.9861 27.1544 32.4243 69.8197C93.3205 56.4768 199.346 33.3795 266.326 19.5409Z" fill="#F2F2F2"/>
<path d="M397.082 270.133H0V270.912H397.082V270.133Z" fill="#2F2E41"/>
<path d="M231.968 84.439L209.441 50.9788C209.441 50.9788 243.556 62.8884 239.684 84.439H231.968Z" fill="#3F3D56"/>
<path d="M232.852 84.439L255.378 50.9788C255.378 50.9788 221.264 62.8884 225.135 84.439H232.852Z" fill="#5CDDAF"/>
<path d="M271.923 270.912H104.915V21.7624H271.923V270.912ZM105.694 270.133H271.145V22.541H105.694V270.133Z" fill="#2F2E41"/>
<path d="M271.729 27.6724H105.499V28.451H271.729V27.6724Z" fill="#2F2E41"/>
<path d="M109.781 26.4339C110.641 26.4339 111.339 25.7368 111.339 24.8768C111.339 24.0168 110.641 23.3196 109.781 23.3196C108.921 23.3196 108.224 24.0168 108.224 24.8768C108.224 25.7368 108.921 26.4339 109.781 26.4339Z" fill="#5CDDAF"/>
<path d="M114.064 26.4339C114.924 26.4339 115.621 25.7368 115.621 24.8768C115.621 24.0168 114.924 23.3196 114.064 23.3196C113.204 23.3196 112.507 24.0168 112.507 24.8768C112.507 25.7368 113.204 26.4339 114.064 26.4339Z" fill="#5CDDAF"/>
<path d="M118.346 26.4339C119.206 26.4339 119.903 25.7368 119.903 24.8768C119.903 24.0168 119.206 23.3196 118.346 23.3196C117.486 23.3196 116.789 24.0168 116.789 24.8768C116.789 25.7368 117.486 26.4339 118.346 26.4339Z" fill="#5CDDAF"/>
<path d="M118.346 33.052H111.339V36.9449H118.346V33.052Z" fill="#5CDDAF"/>
<path d="M145.597 63.8064H111.339V67.6993H145.597V63.8064Z" fill="#5CDDAF"/>
<path d="M233.188 36.9449L267.446 36.9449V33.052L233.188 33.052V36.9449Z" fill="#F2F2F2"/>
<path d="M168.954 70.4244H111.339V72.7602H168.954V70.4244Z" fill="#F2F2F2"/>
<path d="M165.84 75.4852H111.339V77.821H165.84V75.4852Z" fill="#F2F2F2"/>
<path d="M151.047 80.5461H111.339V82.8819H151.047V80.5461Z" fill="#F2F2F2"/>
<path d="M147.154 149.841H124.575V152.177H147.154V149.841Z" fill="#F2F2F2"/>
<path d="M145.933 154.902H124.575V157.237H145.933V154.902Z" fill="#F2F2F2"/>
<path d="M140.136 159.962H124.575V162.298H140.136V159.962Z" fill="#F2F2F2"/>
<path d="M199.709 149.841H177.13V152.177H199.709V149.841Z" fill="#F2F2F2"/>
<path d="M198.488 154.902H177.13V157.237H198.488V154.902Z" fill="#F2F2F2"/>
<path d="M192.691 159.962H177.13V162.298H192.691V159.962Z" fill="#F2F2F2"/>
<path d="M254.21 149.841H231.631V152.177H254.21V149.841Z" fill="#F2F2F2"/>
<path d="M252.99 154.902H231.631V157.237H252.99V154.902Z" fill="#F2F2F2"/>
<path d="M247.192 159.962H231.631V162.298H247.192V159.962Z" fill="#F2F2F2"/>
<path d="M193.869 238.211H159.611V242.104H193.869V238.211Z" fill="#5CDDAF"/>
<path d="M217.227 244.829H159.611V247.165H217.227V244.829Z" fill="#F2F2F2"/>
<path d="M214.113 249.89H159.611V252.226H214.113V249.89Z" fill="#F2F2F2"/>
<path d="M199.32 254.951H159.611V257.286H199.32V254.951Z" fill="#F2F2F2"/>
<path opacity="0.3" d="M257.13 105.85H121.655V106.629H257.13V105.85Z" fill="#5CDDAF"/>
<path opacity="0.3" d="M150.268 119.476H121.46V145.169H150.268V119.476Z" fill="#5CDDAF"/>
<path d="M202.823 119.476H174.015V145.169H202.823V119.476Z" fill="#3F3D56"/>
<path d="M257.325 119.476H228.517V145.169H257.325V119.476Z" fill="#3F3D56"/>
<path d="M184.666 145.061L184.286 145.054C184.294 144.633 184.532 134.714 188.437 131.972L188.655 132.283C184.907 134.914 184.668 144.96 184.666 145.061Z" fill="#5CDDAF"/>
<path d="M190.446 131.846C191.496 131.846 192.346 130.996 192.346 129.946C192.346 128.897 191.496 128.046 190.446 128.046C189.397 128.046 188.546 128.897 188.546 129.946C188.546 130.996 189.397 131.846 190.446 131.846Z" fill="#5CDDAF"/>
<path d="M190.062 136.656C189.073 136.966 188.021 137.012 187.009 136.788C187.651 135.97 188.516 135.355 189.5 135.018C190.484 134.681 191.544 134.635 192.553 134.886C191.892 135.684 191.033 136.294 190.062 136.656Z" fill="#5CDDAF"/>
<path d="M239.167 145.061L238.787 145.054C238.795 144.633 239.033 134.714 242.938 131.972L243.156 132.283C239.409 134.914 239.169 144.96 239.167 145.061Z" fill="#5CDDAF"/>
<path d="M244.947 131.846C245.997 131.846 246.848 130.996 246.848 129.946C246.848 128.897 245.997 128.046 244.947 128.046C243.898 128.046 243.047 128.897 243.047 129.946C243.047 130.996 243.898 131.846 244.947 131.846Z" fill="#5CDDAF"/>
<path d="M244.563 136.656C243.575 136.966 242.522 137.012 241.511 136.788C242.153 135.97 243.018 135.355 244.001 135.018C244.985 134.681 246.045 134.635 247.054 134.886C246.393 135.684 245.534 136.294 244.563 136.656Z" fill="#5CDDAF"/>
<path d="M145.597 194.221H111.339V198.113H145.597V194.221Z" fill="#5CDDAF"/>
<path d="M168.954 200.839H111.339V203.174H168.954V200.839Z" fill="#F2F2F2"/>
<path d="M165.84 205.899H111.339V208.235H165.84V205.899Z" fill="#F2F2F2"/>
<path d="M151.047 210.96H111.339V213.296H151.047V210.96Z" fill="#F2F2F2"/>
<path opacity="0.4" d="M238.153 211.757C244.871 211.757 250.317 206.311 250.317 199.593C250.317 192.874 244.871 187.428 238.153 187.428C231.434 187.428 225.988 192.874 225.988 199.593C225.988 206.311 231.434 211.757 238.153 211.757Z" fill="#5CDDAF"/>
<path opacity="0.4" d="M215.639 213.936C220.352 213.936 224.172 210.116 224.172 205.403C224.172 200.69 220.352 196.869 215.639 196.869C210.926 196.869 207.105 200.69 207.105 205.403C207.105 210.116 210.926 213.936 215.639 213.936Z" fill="#5CDDAF"/>
<path d="M65.2071 257.481C82.1923 257.481 95.9615 243.712 95.9615 226.727C95.9615 209.742 82.1923 195.972 65.2071 195.972C48.2219 195.972 34.4527 209.742 34.4527 226.727C34.4527 243.712 48.2219 257.481 65.2071 257.481Z" fill="#2F2E41"/>
<path d="M60.5355 250.863H51.1924V267.603H60.5355V250.863Z" fill="#2F2E41"/>
<path d="M79.2217 250.863H69.8786V267.603H79.2217V250.863Z" fill="#2F2E41"/>
<path d="M58.9783 270.717C63.2784 270.717 66.7643 269.41 66.7643 267.797C66.7643 266.185 63.2784 264.878 58.9783 264.878C54.6783 264.878 51.1924 266.185 51.1924 267.797C51.1924 269.41 54.6783 270.717 58.9783 270.717Z" fill="#2F2E41"/>
<path d="M77.6646 270.328C81.9646 270.328 85.4505 269.021 85.4505 267.408C85.4505 265.796 81.9646 264.488 77.6646 264.488C73.3645 264.488 69.8786 265.796 69.8786 267.408C69.8786 269.021 73.3645 270.328 77.6646 270.328Z" fill="#2F2E41"/>
<path d="M65.9857 229.452C71.7907 229.452 76.4967 224.746 76.4967 218.941C76.4967 213.136 71.7907 208.43 65.9857 208.43C60.1806 208.43 55.4747 213.136 55.4747 218.941C55.4747 224.746 60.1806 229.452 65.9857 229.452Z" fill="white"/>
<path d="M65.9857 217.773C67.9207 217.773 69.4893 216.204 69.4893 214.269C69.4893 212.334 67.9207 210.766 65.9857 210.766C64.0506 210.766 62.482 212.334 62.482 214.269C62.482 216.204 64.0506 217.773 65.9857 217.773Z" fill="#3F3D56"/>
<path d="M35.3743 198.126C32.891 187.005 40.829 175.767 53.1044 173.026C65.3797 170.285 77.3439 177.079 79.8272 188.2C82.3105 199.321 74.1752 203.423 61.8998 206.164C49.6245 208.905 37.8576 209.247 35.3743 198.126Z" fill="#5CDDAF"/>
<path d="M92.8556 194.73C96.4344 187.029 97.3756 179.875 94.9578 178.751C92.54 177.628 87.6788 182.96 84.1 190.662C80.5212 198.364 79.58 205.518 81.9978 206.641C84.4156 207.765 89.2768 202.432 92.8556 194.73Z" fill="#2F2E41"/>
<path d="M39.2237 215.63C41.58 214.383 40.2694 207.287 36.2964 199.781C32.3233 192.275 27.1923 187.201 24.836 188.449C22.4796 189.696 23.7903 196.792 27.7633 204.298C31.7364 211.804 36.8674 216.877 39.2237 215.63Z" fill="#2F2E41"/>
<path d="M324.754 218.204C327.242 217.245 326.783 210.044 323.728 202.12C320.674 194.195 316.181 188.549 313.694 189.507C311.206 190.466 311.665 197.667 314.72 205.592C317.774 213.516 322.266 219.163 324.754 218.204Z" fill="#2F2E41"/>
<path d="M347.715 257.754C364.7 257.754 378.469 243.985 378.469 227C378.469 210.015 364.7 196.246 347.715 196.246C330.73 196.246 316.961 210.015 316.961 227C316.961 243.985 330.73 257.754 347.715 257.754Z" fill="#2F2E41"/>
<path d="M352.5 267.861L361.843 267.835L361.796 251.095L352.453 251.121L352.5 267.861Z" fill="#2F2E41"/>
<path d="M333.815 267.915L343.158 267.889L343.111 251.149L333.768 251.175L333.815 267.915Z" fill="#2F2E41"/>
<path d="M354.067 270.973C358.367 270.961 361.849 269.644 361.845 268.031C361.84 266.419 358.351 265.121 354.051 265.133C349.751 265.145 346.268 266.462 346.273 268.075C346.277 269.687 349.767 270.985 354.067 270.973Z" fill="#2F2E41"/>
<path d="M335.38 270.636C339.68 270.624 343.162 269.307 343.158 267.694C343.153 266.082 339.664 264.784 335.363 264.796C331.063 264.808 327.581 266.125 327.586 267.738C327.59 269.35 331.08 270.648 335.38 270.636Z" fill="#2F2E41"/>
<path d="M346.915 229.727C352.72 229.727 357.426 225.021 357.426 219.216C357.426 213.411 352.72 208.705 346.915 208.705C341.11 208.705 336.404 213.411 336.404 219.216C336.404 225.021 341.11 229.727 346.915 229.727Z" fill="white"/>
<path d="M346.915 222.72C348.85 222.72 350.418 221.151 350.418 219.216C350.418 217.281 348.85 215.713 346.915 215.713C344.98 215.713 343.411 217.281 343.411 219.216C343.411 221.151 344.98 222.72 346.915 222.72Z" fill="#3F3D56"/>
<path d="M377.468 198.316C379.92 187.188 371.95 175.972 359.667 173.266C347.384 170.559 335.439 177.386 332.987 188.514C330.535 199.643 338.682 203.722 350.965 206.428C363.248 209.135 375.016 209.444 377.468 198.316Z" fill="#5CDDAF"/>
<path d="M384.396 216.989C392.059 213.328 397.339 208.41 396.19 206.004C395.041 203.599 387.897 204.616 380.234 208.277C372.571 211.938 367.29 216.856 368.439 219.261C369.589 221.667 376.733 220.649 384.396 216.989Z" fill="#2F2E41"/>
<path d="M362.853 238.053C362.861 241.063 355.127 247.028 346.527 247.052C337.927 247.076 329.84 238.625 329.832 235.615C329.823 232.605 337.897 236.176 346.497 236.152C355.097 236.128 362.844 235.043 362.853 238.053Z" fill="white"/>
<path opacity="0.4" d="M357.081 225.383C380.784 225.383 400 206.167 400 182.464C400 158.76 380.784 139.545 357.081 139.545C333.377 139.545 314.162 158.76 314.162 182.464C314.162 206.167 333.377 225.383 357.081 225.383Z" fill="#5CDDAF"/>
<path d="M74.1238 166.459C91.109 166.459 104.878 152.69 104.878 135.705C104.878 118.72 91.109 104.95 74.1238 104.95C57.1387 104.95 43.3694 118.72 43.3694 135.705C43.3694 152.69 57.1387 166.459 74.1238 166.459Z" fill="#2F2E41"/>
<path d="M65.2275 158.623L56.0338 156.959L53.0519 173.431L62.2456 175.095L65.2275 158.623Z" fill="#2F2E41"/>
<path d="M83.6148 161.952L74.4212 160.287L71.4393 176.759L80.6329 178.424L83.6148 161.952Z" fill="#2F2E41"/>
<path d="M83.5809 184.694C84.623 183.463 82.8077 180.213 79.5263 177.434C76.2449 174.655 72.74 173.4 71.6979 174.63C70.6558 175.861 72.4711 179.111 75.7525 181.89C79.0339 184.669 82.5388 185.924 83.5809 184.694Z" fill="#2F2E41"/>
<path d="M65.5766 181.434C66.6187 180.204 64.8035 176.954 61.5221 174.175C58.2407 171.396 54.7358 170.14 53.6936 171.371C52.6515 172.601 54.4668 175.852 57.7482 178.631C61.0296 181.41 64.5345 182.665 65.5766 181.434Z" fill="#2F2E41"/>
<path d="M76.2769 138.693C82.0819 138.693 86.7879 133.987 86.7879 128.182C86.7879 122.377 82.0819 117.671 76.2769 117.671C70.4718 117.671 65.7659 122.377 65.7659 128.182C65.7659 133.987 70.4718 138.693 76.2769 138.693Z" fill="white"/>
<path d="M80.5969 127.918C82.5319 127.918 84.1006 126.349 84.1006 124.414C84.1006 122.479 82.5319 120.911 80.5969 120.911C78.6619 120.911 77.0932 122.479 77.0932 124.414C77.0932 126.349 78.6619 127.918 80.5969 127.918Z" fill="#3F3D56"/>
<path d="M49.8629 102.247C49.4004 90.8615 59.2133 81.2178 71.7805 80.7073C84.3478 80.1968 94.9105 89.0129 95.373 100.399C95.8355 111.784 87.0997 114.371 74.5324 114.882C61.9651 115.392 50.3254 113.633 49.8629 102.247Z" fill="#5CDDAF"/>
<path d="M103.6 134.807C111.878 132.91 118.105 129.265 117.51 126.666C116.914 124.068 109.721 123.499 101.443 125.396C93.1648 127.294 86.9371 130.939 87.5328 133.537C88.1284 136.136 95.3219 136.705 103.6 134.807Z" fill="#2F2E41"/>
<path d="M43.2301 144.847C51.508 142.949 57.7357 139.304 57.14 136.706C56.5444 134.107 49.3509 133.538 41.073 135.436C32.7951 137.333 26.5674 140.978 27.1631 143.577C27.7587 146.176 34.9522 146.744 43.2301 144.847Z" fill="#2F2E41"/>
<path d="M65.6771 147.825C65.3461 149.653 65.7551 151.539 66.8141 153.066C67.8731 154.593 69.4954 155.637 71.3242 155.968C73.1529 156.299 75.0382 155.89 76.5654 154.831C78.0926 153.772 79.1366 152.15 79.4676 150.321C80.157 146.513 77.2127 145.165 73.4046 144.476C69.5964 143.787 66.3665 144.017 65.6771 147.825Z" fill="white"/>
<path d="M146.538 110.723L118.944 102.45L111.565 127.061L139.16 135.334L146.538 110.723Z" fill="#3F3D56"/>
<path d="M121.798 130.016L121.436 129.9C121.565 129.499 124.641 120.066 129.169 118.561L129.289 118.922C124.943 120.366 121.829 129.92 121.798 130.016Z" fill="#5CDDAF"/>
<path d="M131.675 119.098C132.725 119.098 133.576 118.247 133.576 117.198C133.576 116.148 132.725 115.297 131.675 115.297C130.626 115.297 129.775 116.148 129.775 117.198C129.775 118.247 130.626 119.098 131.675 119.098Z" fill="#5CDDAF"/>
<path d="M129.381 123.514C128.345 123.528 127.323 123.269 126.419 122.764C127.269 122.165 128.274 121.825 129.313 121.784C130.352 121.744 131.38 122.004 132.275 122.535C131.412 123.109 130.414 123.447 129.381 123.514Z" fill="#5CDDAF"/>
</g>
<defs>
<clipPath id="clip0_143_256">
<rect width="400" height="270.973" fill="white"/>
</clipPath>
</defs>
</svg>
