<svg width="114" height="41" viewBox="0 0 114 41" fill="none" xmlns="http://www.w3.org/2000/svg">
<path d="M2 13C10.5842 23.8953 28.1498 26.6446 39 17C41.2716 14.9808 46.5238 10.6202 44.4444 7.05555C41.8689 2.64026 35.1535 0.372606 30.5556 2.99999C27.6581 4.65568 26 13.0633 26 16C26 20.3091 25.9001 23.3397 28.4444 26.6111C30.2862 28.979 31.2793 30.6218 34 32.2222C36.1015 33.4584 37.5448 33.744 40 34.7778C45.2818 37.0017 53.6725 36.1603 59.4444 36C72.7899 35.6293 84.8651 26.3596 96.7778 21.7778C100.244 20.4446 103.526 16 107.5 16C113.352 16 101.465 13.2243 98.5556 14.0555C94.4135 15.239 81.3588 15 85.6667 15C90.9004 15 96.155 14 101.5 14C106.247 14 115.497 13.4594 110.778 19.4444C106.165 25.2949 101.774 32.0662 99 39" stroke="white" stroke-width="3" stroke-linecap="round"/>
</svg>
