<svg width="433" height="335" viewBox="0 0 433 335" fill="none" xmlns="http://www.w3.org/2000/svg">
<g clip-path="url(#clip0_151_25)">
<path d="M390.293 160.049L383.855 189.009L378.628 212.502L374.462 231.24L369.239 254.734L352.17 331.488L140.666 233.754L125.119 226.569L105.44 217.474L89.8876 210.289L71.1821 201.644L81.7866 186.215L90.6049 173.385L101.761 157.154L110.577 144.332L209.782 0L314.874 93.1804L333.588 109.773L348.51 123.004L367.228 139.596L390.293 160.049Z" fill="#F2F2F2"/>
<path d="M82.861 245.249C68.718 237.364 59.9135 226.6 56.6919 213.255C54.2998 203.347 54.9872 192.197 58.7347 180.116C61.5128 171.209 65.6781 162.795 71.077 155.185C99.7193 114.642 102.304 88.2247 99.4294 73.202C96.2772 56.7301 86.036 49.8891 85.9328 49.822L86.3749 49.1421C86.4806 49.2108 96.9918 56.2107 100.22 73.0169C102.081 82.7057 101.205 93.7535 97.6176 105.853C93.1526 120.912 84.4459 137.667 71.7395 155.653C66.3897 163.194 62.2623 171.53 59.5092 180.356C53.3629 200.171 52.4934 227.391 83.2558 244.541L82.861 245.249Z" fill="#2F2E41"/>
<path d="M89.6623 245.249C103.805 237.364 112.61 226.6 115.832 213.255C118.224 203.347 117.536 192.197 113.789 180.116C111.011 171.209 106.845 162.795 101.446 155.185C72.8039 114.642 70.2188 88.2247 73.0938 73.202C76.246 56.7301 86.4873 49.8891 86.5905 49.822L86.1484 49.1421C86.0427 49.2108 75.5314 56.2107 72.3034 73.0169C70.4425 82.7057 71.318 93.7535 74.9056 105.853C79.3706 120.912 88.0774 137.667 100.784 155.653C106.134 163.194 110.261 171.53 113.014 180.356C119.161 200.171 120.03 227.391 89.2675 244.541L89.6623 245.249Z" fill="#2F2E41"/>
<path d="M397.917 211.189C383.774 203.304 374.969 192.54 371.748 179.195C369.356 169.287 370.043 158.137 373.791 146.056C376.569 137.148 380.734 128.735 386.133 121.125C414.775 80.5821 417.36 54.1642 414.485 39.1415C411.333 22.6695 401.092 15.8286 400.989 15.7614L401.431 15.0815C401.537 15.1502 412.048 22.1502 415.276 38.9564C417.137 48.6452 416.261 59.6931 412.674 71.7929C408.209 86.8516 399.502 103.607 386.795 121.593C381.446 129.133 377.318 137.47 374.565 146.296C368.419 166.111 367.549 193.331 398.312 210.481L397.917 211.189Z" fill="#2F2E41"/>
<path d="M404.72 211.189C418.862 203.304 427.667 192.54 430.888 179.195C433.28 169.287 432.593 158.137 428.846 146.056C426.067 137.149 421.902 128.735 416.503 121.125C387.862 80.5821 385.276 54.1643 388.151 39.1415C391.303 22.6695 401.545 15.8286 401.648 15.7614L401.206 15.0815C401.1 15.1502 390.589 22.1502 387.361 38.9564C385.5 48.6453 386.376 59.6931 389.963 71.7929C394.428 86.8517 403.135 103.607 415.841 121.593C421.191 129.133 425.318 137.47 428.071 146.296C434.217 166.111 435.087 193.331 404.325 210.481L404.72 211.189Z" fill="#2F2E41"/>
<path d="M189.689 121.623C179.062 103.667 158.039 102.831 158.039 102.831C158.039 102.831 137.553 100.211 124.411 127.557C112.162 153.046 95.2569 177.656 121.69 183.623L126.464 168.762L129.421 184.729C133.185 185 136.96 185.065 140.731 184.923C169.038 184.009 195.997 185.19 195.129 175.032C193.975 161.529 199.913 138.9 189.689 121.623Z" fill="#2F2E41"/>
<path d="M146.072 159.203C149.734 167.302 152.043 176.957 153.422 187.681L182.819 185.843C176.06 176.266 173.816 165.274 176.388 152.772L146.072 159.203Z" fill="#FFB8B8"/>
<path opacity="0.2" d="M146.072 159.203C149.734 167.302 152.043 176.957 153.422 187.681L182.819 185.843C176.06 176.266 173.816 165.274 176.388 152.772L146.072 159.203Z" fill="#5CDDAF"/>
<path d="M9.67965 313.417C9.67965 313.417 -5.53505 321.567 2.18561 328.525C9.90627 335.482 20.1049 319.315 20.1049 319.315L9.67965 313.417Z" fill="#FFB8B8"/>
<path d="M195.68 289.651L195.443 300.785L194.935 324.842V324.846L194.788 331.813H97.4924L101.447 309.856L101.451 309.84L104.991 290.187L106.571 281.386V281.382L186.494 270.358L195.68 289.651Z" fill="#2F2E41"/>
<path d="M195.68 289.652L195.441 300.786C167.165 300.06 123.336 293.235 104.99 290.185L106.57 281.384L186.493 270.36L195.68 289.652Z" fill="#3F3D56"/>
<path d="M160.311 167.011C172.995 167.011 183.277 156.728 183.277 144.044C183.277 131.36 172.995 121.078 160.311 121.078C147.628 121.078 137.345 131.36 137.345 144.044C137.345 156.728 147.628 167.011 160.311 167.011Z" fill="#FFB8B8"/>
<path d="M204.407 302.055C204.407 302.055 207.163 326.859 190.627 325.022L187.871 300.218L173.173 285.519L131.833 284.6L101.518 313.079C101.518 313.079 100.599 283.681 104.274 280.925C107.949 278.169 116.216 271.739 116.216 271.739V267.145L91.4129 216.619C91.4129 216.619 106.111 186.302 118.054 185.384L133.671 184.465C133.671 184.465 139.183 181.709 139.183 180.79C139.183 179.872 138.264 172.522 142.857 174.36C142.857 174.36 143.271 164.934 148.112 167.81C148.112 167.81 163.352 179.752 178.822 168.333C178.822 168.333 186.034 167.01 185.115 170.685C184.196 174.36 185.115 177.116 186.952 177.116C188.79 177.116 197.058 179.872 197.058 181.709C197.058 182.104 197.655 185.907 198.592 191.631V191.64C202 212.503 209.919 258.877 209.919 258.877C209.919 258.877 218.186 270.82 204.407 302.055Z" fill="#5CDDAF"/>
<path d="M97.8431 212.026L91.4125 216.619L32.619 291.95L1.38492 316.754C1.38492 316.754 18.8393 313.998 15.1647 328.697L122.647 267.146L97.8431 212.026Z" fill="#5CDDAF"/>
<path d="M198.592 191.631V191.64C197.37 198.824 157.556 197.327 152.044 197.327C146.532 197.327 141.939 196.408 136.427 192.733C130.915 189.058 133.671 184.465 133.671 184.465C133.671 184.465 138.364 180.89 138.364 179.972C138.364 179.053 137.445 171.703 142.039 173.541C142.039 173.541 142.452 164.115 147.293 166.99C147.293 166.99 163.352 179.752 178.823 168.333C178.823 168.333 186.034 167.01 185.115 170.685C184.197 174.359 185.115 177.115 186.953 177.115C188.79 177.115 197.058 179.872 197.058 181.709C197.058 182.104 197.655 185.907 198.592 191.631Z" fill="#3F3D56"/>
<path d="M193.843 157.365C193.843 157.365 186.493 141.747 179.144 149.097C171.795 156.446 187.412 167.47 187.412 167.47L193.843 157.365Z" fill="#FFB8B8"/>
<path d="M193.843 153.691C193.843 153.691 182.494 168.033 178.982 169.13C178.982 169.13 189.249 209.729 202.111 220.753L209.46 258.418C209.46 258.418 240.694 245.557 233.345 224.427C233.272 224.216 233.199 224.006 233.126 223.797C226.989 206.201 218.521 189.508 207.946 174.163L193.843 153.691Z" fill="#5CDDAF"/>
<path opacity="0.2" d="M187.777 196.228L210.378 258.419L202.11 220.753L187.777 196.228Z" fill="#5CDDAF"/>
<path d="M184.991 119.892L164.221 109.012L135.539 113.463L129.604 139.673L144.377 139.104L148.504 129.475V138.946L155.32 138.684L159.276 123.353L161.749 139.673L185.98 139.178L184.991 119.892Z" fill="#2F2E41"/>
<path d="M381.201 261.269L392.986 303.306C392.986 303.306 390.558 340.54 401.89 333.255C413.487 325.8 409.175 294.402 409.175 294.402L402.382 256.689L381.201 261.269Z" fill="#A0616A"/>
<path d="M387.5 143.344L397.231 153.076V199.444C397.231 199.444 402.955 208.031 401.81 210.321C400.665 212.611 399.521 212.611 400.665 214.328C401.81 216.046 402.955 217.19 401.81 218.335C400.665 219.48 400.665 222.342 401.81 223.487C402.955 224.632 405.245 226.35 403.527 228.067C401.81 229.784 399.521 228.639 401.81 234.936C404.1 241.233 408.107 242.951 406.962 245.241C405.817 247.53 405.817 253.255 405.817 253.255L381.203 256.69L376.052 192.003L387.5 143.344Z" fill="#D0CDE1"/>
<path d="M406.962 252.682L378.341 253.827L379.485 265.849L404.672 261.269L406.962 252.682Z" fill="#3F3D56"/>
<path d="M328.252 83.5237L324.817 117.871L359.735 123.023L362.311 103.273L364.887 83.5237H328.252Z" fill="#A0616A"/>
<path opacity="0.1" d="M328.252 83.3379L324.817 117.685L359.735 122.837L362.311 103.087L364.887 83.3379H328.252Z" fill="#5CDDAF"/>
<path d="M252.404 246.957L271.866 288.745C271.866 288.745 275.3 308.208 280.452 308.78C285.604 309.353 290.756 288.745 290.756 288.745L283.887 277.869L275.873 246.957H252.404Z" fill="#A0616A"/>
<path d="M385.631 332.219H275.599C276.471 318.428 277.02 309.926 277.02 309.926L278.481 307.625L285.566 296.491L290.626 288.542L292.39 285.766L293.045 284.739L299.975 283.474L371.468 270.428C372.651 275.723 374.324 280.897 376.466 285.881C376.953 286.99 377.477 288.1 378.038 289.197C379.835 292.705 382.029 296.029 384.637 298.477C385.23 299.033 385.66 300.519 385.938 302.803C386.626 308.399 386.429 318.804 385.631 332.219Z" fill="#2F2E41"/>
<path d="M347.428 94.6868C362.603 94.6868 374.905 82.3847 374.905 67.2094C374.905 52.034 362.603 39.7319 347.428 39.7319C332.253 39.7319 319.951 52.034 319.951 67.2094C319.951 82.3847 332.253 94.6868 347.428 94.6868Z" fill="#A0616A"/>
<path d="M286.177 123.309L282.17 121.019C282.17 121.019 264.425 133.041 258.7 159.946C252.976 186.851 248.969 193.72 248.969 193.72C248.969 193.72 243.245 194.865 247.252 198.872C251.259 202.879 251.259 202.307 247.824 204.597C244.39 206.886 242.1 202.307 244.39 206.886C246.679 211.466 249.541 210.321 247.252 213.183C244.962 216.046 240.955 216.046 243.245 218.335C245.534 220.625 240.955 225.777 243.817 228.067C246.679 230.357 247.824 230.929 247.824 234.936C247.807 237.275 248.194 239.599 248.969 241.806H278.735C278.735 241.806 273.011 230.929 274.728 228.639C276.446 226.35 277.018 224.06 275.873 222.915C274.728 221.77 271.294 224.06 274.728 221.198C278.163 218.335 279.308 220.053 278.163 216.618C277.018 213.183 274.728 214.901 277.018 213.183C279.308 211.466 281.025 212.038 279.88 210.321C278.735 208.604 276.446 208.604 278.735 207.459C281.025 206.314 282.742 207.459 282.17 204.597C281.598 201.734 281.025 202.879 282.17 201.734C283.315 200.589 295.336 161.663 295.336 160.518C295.336 159.373 286.177 123.309 286.177 123.309Z" fill="#D0CDE1"/>
<path d="M280.453 239.515L244.39 241.805L253.549 250.392L278.736 250.964L280.453 239.515Z" fill="#3F3D56"/>
<path d="M290.757 282.449L283.315 296.188C283.315 296.188 305.64 299.05 313.654 301.912C321.668 304.774 342.276 308.781 342.276 308.781L347.428 288.746L290.757 282.449Z" fill="#3F3D56"/>
<path d="M356.014 288.747L362.311 307.637L387.5 302.485L384.637 284.74L356.014 288.747Z" fill="#3F3D56"/>
<path d="M366.319 103.846C366.319 103.846 364.601 102.701 360.594 104.991C356.587 107.281 343.421 108.425 337.124 101.556C330.827 94.6867 326.248 88.9622 324.531 90.1071C322.813 91.252 321.668 104.418 321.668 104.418L315.944 108.998L282.17 121.019L285.032 198.3L290.184 216.046C290.184 216.046 286.177 229.785 291.329 237.799C296.481 245.814 288.467 248.676 288.467 248.676C288.467 248.676 286.75 250.966 287.895 256.69C289.039 262.415 286.75 283.596 286.75 283.596C286.75 283.596 335.407 305.349 386.354 286.458L380.63 264.705L377.767 216.046C377.767 216.046 380.63 208.032 380.057 204.597C379.485 201.163 397.23 153.077 397.23 153.077C397.23 153.077 394.368 129.034 379.485 123.882C364.601 118.73 362.312 113.578 362.312 113.578C362.312 113.578 369.181 106.136 366.319 103.846Z" fill="#D0CDE1"/>
<path d="M319.761 70.7289C319.761 70.7289 316.907 66.4488 318.005 61.8395C318.661 59.2226 318.92 56.522 318.773 53.8281C318.773 53.8281 321.078 46.3654 323.382 42.1951C325.687 38.0248 324.59 36.2688 331.833 34.9519C339.076 33.6349 336.113 24.1969 355.209 34.4032C355.853 35.3027 356.749 35.9912 357.784 36.3819C358.819 36.7725 359.947 36.8477 361.025 36.5981C364.976 35.8299 366.403 41.3171 366.403 41.3171C366.403 41.3171 369.036 39.7807 370.024 41.9756C371.012 44.1705 378.055 40.6583 378.055 55.4739C378.055 70.2895 370.04 83.5237 370.04 83.5237C370.04 83.5237 370.628 58.602 357.568 56.0779C344.508 53.5537 330.461 46.2008 327.059 55.6389C323.657 65.077 319.761 70.7289 319.761 70.7289Z" fill="#2F2E41"/>
<path d="M370.326 76.6544C371.748 76.6544 372.901 75.1167 372.901 73.2198C372.901 71.3229 371.748 69.7852 370.326 69.7852C368.904 69.7852 367.751 71.3229 367.751 73.2198C367.751 75.1167 368.904 76.6544 370.326 76.6544Z" fill="#A0616A"/>
</g>
<defs>
<clipPath id="clip0_151_25">
<rect width="432.283" height="334.2" fill="white"/>
</clipPath>
</defs>
</svg>
