<svg width="20" height="20" viewBox="0 0 20 20" fill="none" xmlns="http://www.w3.org/2000/svg">
<path d="M4.17872e-08 9.99909C0.000178144 8.04972 0.570111 6.1429 1.6397 4.51317C2.70929 2.88343 4.23189 1.60185 6.02024 0.826047C7.80859 0.0502436 9.78469 -0.18595 11.7055 0.146516C13.6263 0.478982 15.4081 1.36561 16.8316 2.69735C18.2552 4.02909 19.2585 5.74787 19.7181 7.64229C20.1777 9.5367 20.0736 11.5241 19.4186 13.3602C18.7635 15.1962 17.5862 16.8008 16.0313 17.9765C14.4763 19.1522 12.6117 19.8478 10.6667 19.9778V11.9991H13.3333V10.6658H10.6667V8.66576C10.6667 8.13533 10.8774 7.62662 11.2525 7.25154C11.6275 6.87647 12.1362 6.66576 12.6667 6.66576H13.3333V5.33242H12.6667C11.7826 5.33242 10.9348 5.68361 10.3096 6.30874C9.68452 6.93386 9.33333 7.7817 9.33333 8.66576V10.6658H6.66667V11.9991H9.33333V19.9778C6.80206 19.8086 4.42968 18.6838 2.69672 16.831C0.96376 14.9782 -0.000231739 12.536 4.17872e-08 9.99909Z" fill="#0A66C2"/>
</svg>
