<svg width="20" height="20" viewBox="0 0 20 20" fill="none" xmlns="http://www.w3.org/2000/svg">
<path d="M14.6667 4.66675H16H14.6667ZM6 0.666748H14C15.4145 0.666748 16.771 1.22865 17.7712 2.22885C18.7714 3.22904 19.3333 4.58559 19.3333 6.00008V14.0001C19.3333 15.4146 18.7714 16.7711 17.7712 17.7713C16.771 18.7715 15.4145 19.3334 14 19.3334H6C4.58551 19.3334 3.22896 18.7715 2.22876 17.7713C1.22857 16.7711 0.666667 15.4146 0.666667 14.0001V6.00008C0.666667 4.58559 1.22857 3.22904 2.22876 2.22885C3.22896 1.22865 4.58551 0.666748 6 0.666748V0.666748ZM10 14.0001C8.93913 14.0001 7.92172 13.5787 7.17157 12.8285C6.42143 12.0784 6 11.0609 6 10.0001C6 8.93921 6.42143 7.9218 7.17157 7.17165C7.92172 6.42151 8.93913 6.00008 10 6.00008C11.0609 6.00008 12.0783 6.42151 12.8284 7.17165C13.5786 7.9218 14 8.93921 14 10.0001C14 11.0609 13.5786 12.0784 12.8284 12.8285C12.0783 13.5787 11.0609 14.0001 10 14.0001Z" stroke="#F98568"/>
</svg>
