<svg width="25" height="25" viewBox="0 0 25 25" fill="none" xmlns="http://www.w3.org/2000/svg">
<path d="M4.16667 1.66663C3.50363 1.66663 2.86775 1.93002 2.3989 2.39886C1.93006 2.8677 1.66667 3.50358 1.66667 4.16663V16.6666C1.66667 18.4347 2.36905 20.1304 3.61929 21.3807C4.86954 22.6309 6.56523 23.3333 8.33334 23.3333V21.6666C7.00726 21.6666 5.73549 21.1398 4.7978 20.2022C3.86012 19.2645 3.33334 17.9927 3.33334 16.6666V11.6666H9.16667C9.82971 11.6666 10.4656 11.4032 10.9344 10.9344C11.4033 10.4656 11.6667 9.82967 11.6667 9.16663V4.16663C11.6667 3.50358 11.4033 2.8677 10.9344 2.39886C10.4656 1.93002 9.82971 1.66663 9.16667 1.66663H4.16667ZM15.8333 1.66663C15.1703 1.66663 14.5344 1.93002 14.0656 2.39886C13.5967 2.8677 13.3333 3.50358 13.3333 4.16663V16.6666C13.3333 18.4347 14.0357 20.1304 15.286 21.3807C16.5362 22.6309 18.2319 23.3333 20 23.3333V21.6666C18.6739 21.6666 17.4022 21.1398 16.4645 20.2022C15.5268 19.2645 15 17.9927 15 16.6666V11.6666H20.8333C21.4964 11.6666 22.1323 11.4032 22.6011 10.9344C23.0699 10.4656 23.3333 9.82967 23.3333 9.16663V4.16663C23.3333 3.50358 23.0699 2.8677 22.6011 2.39886C22.1323 1.93002 21.4964 1.66663 20.8333 1.66663H15.8333Z" fill="#5CDDAF"/>
</svg>
