<svg width="20" height="20" viewBox="0 0 20 20" fill="none" xmlns="http://www.w3.org/2000/svg">
<g clip-path="url(#clip0_135_209)">
<path d="M19.9693 1.95609C19.9604 1.8255 19.9133 1.70042 19.8338 1.59645C19.7542 1.49248 19.6459 1.41422 19.5222 1.37143C19.3985 1.32863 19.2649 1.32319 19.1382 1.35579C19.0114 1.38839 18.897 1.45759 18.8093 1.55475C18.3734 2.04376 17.8059 2.39693 17.1747 2.57209C16.3234 1.77518 15.2007 1.33229 14.0347 1.33342C13.415 1.33377 12.8015 1.45617 12.2291 1.69363C11.6567 1.93108 11.1368 2.27895 10.6988 2.71737C10.2609 3.15579 9.91364 3.67616 9.67683 4.24879C9.44001 4.82142 9.31831 5.43509 9.31866 6.05475V6.64142C5.33066 6.33342 3.19999 3.30275 2.62266 1.76675C2.57722 1.64503 2.4972 1.53924 2.39243 1.46238C2.28767 1.38553 2.16274 1.34096 2.03298 1.33417C1.90323 1.32737 1.77432 1.35863 1.6621 1.42411C1.54988 1.4896 1.45924 1.58644 1.40133 1.70275C0.00532627 4.49742 -0.20934 7.20942 0.805326 9.51875C1.69333 11.5414 3.47999 13.1521 6.01333 14.2201C4.86266 15.0348 2.92533 16.0001 0.66666 16.0001C0.523512 15.9999 0.384109 16.0458 0.269074 16.131C0.154039 16.2162 0.0694805 16.3362 0.0279085 16.4731C-0.0136635 16.6101 -0.0100414 16.7568 0.0382391 16.8916C0.0865195 17.0264 0.176894 17.142 0.295993 17.2214C2.46266 18.6668 4.73333 18.6668 6.84266 18.6668H6.90666C13.388 18.6668 18.64 13.4054 18.64 6.91742V6.27875C19.124 5.78542 19.5013 5.28275 19.7333 4.63075C19.9907 3.90275 20.0427 3.06009 19.9693 1.95609Z" fill="#1D9BF0"/>
</g>
<defs>
<clipPath id="clip0_135_209">
<rect width="20" height="20" fill="white"/>
</clipPath>
</defs>
</svg>
