<svg width="20" height="20" viewBox="0 0 20 20" fill="none" xmlns="http://www.w3.org/2000/svg">
<g clip-path="url(#clip0_184_105)">
<path d="M2.14667 16.984L2.008 17.636L2.148 16.984H2.14667ZM17.8533 16.984L17.992 17.636L17.852 16.984H17.8533ZM17.8533 3.01601L17.992 2.36401L17.852 3.01601H17.8533ZM2.14667 3.01601L2.288 3.66801L2.148 3.01601H2.14667ZM8.66667 7.33334L9.036 6.77868C8.93561 6.71187 8.81897 6.67354 8.69852 6.66778C8.57807 6.66202 8.45831 6.68904 8.352 6.74595C8.24569 6.80287 8.15681 6.88756 8.09482 6.991C8.03283 7.09444 8.00006 7.21275 8 7.33334H8.66667ZM8.66667 12.6667H8C8.00006 12.7873 8.03283 12.9056 8.09482 13.009C8.15681 13.1125 8.24569 13.1971 8.352 13.2541C8.45831 13.311 8.57807 13.338 8.69852 13.3322C8.81897 13.3265 8.93561 13.2881 9.036 13.2213L8.66667 12.6667ZM12.6667 10L13.036 10.5547C13.1273 10.4938 13.2022 10.4113 13.2539 10.3146C13.3057 10.2178 13.3328 10.1098 13.3328 10C13.3328 9.89027 13.3057 9.78222 13.2539 9.68546C13.2022 9.58871 13.1273 9.50623 13.036 9.44534L12.6667 10ZM2.25317e-08 4.84801V15.152H1.33333V4.84801H2.25317e-08ZM20 15.152V4.84801H18.6667V15.152H20ZM2.008 17.636C7.276 18.7653 12.724 18.7653 17.992 17.636L17.712 16.332C12.6284 17.4213 7.37163 17.4213 2.288 16.332L2.008 17.636V17.636ZM17.992 2.36401C12.7238 1.23507 7.2762 1.23507 2.008 2.36401L2.288 3.66801C7.37164 2.57875 12.6284 2.57875 17.712 3.66801L17.992 2.36401ZM20 4.84801C20 3.65068 19.1627 2.61468 17.992 2.36401L17.712 3.66801C18.2693 3.78801 18.6667 4.27868 18.6667 4.84801H20V4.84801ZM18.6667 15.152C18.6667 15.4283 18.5719 15.6961 18.3981 15.9109C18.2243 16.1257 17.9822 16.2743 17.712 16.332L17.992 17.636C18.5604 17.5143 19.0699 17.2012 19.4353 16.7491C19.8008 16.2971 20.0001 15.7333 20 15.152H18.6667ZM2.25317e-08 15.152C2.25317e-08 16.3493 0.837333 17.3853 2.008 17.636L2.288 16.332C2.01784 16.2743 1.77566 16.1257 1.6019 15.9109C1.42815 15.6961 1.33335 15.4283 1.33333 15.152H2.25317e-08ZM1.33333 4.84801C1.33333 4.27868 1.73067 3.78668 2.288 3.66801L2.008 2.36401C1.43958 2.48576 0.930132 2.79881 0.564687 3.25088C0.199243 3.70295 -7.73745e-05 4.2667 2.25317e-08 4.84801H1.33333V4.84801ZM8 7.33334V12.6667H9.33333V7.33334H8ZM9.036 13.2213L13.036 10.5547L12.2973 9.44534L8.29733 12.112L9.036 13.2213V13.2213ZM13.036 9.44534L9.036 6.77868L8.29733 7.88801L12.2973 10.5547L13.036 9.44534Z" fill="#E65331"/>
</g>
<defs>
<clipPath id="clip0_184_105">
<rect width="20" height="20" fill="white"/>
</clipPath>
</defs>
</svg>
